<svg xmlns="http://www.w3.org/2000/svg" version="1.1" xmlns:xlink="http://www.w3.org/1999/xlink" xmlns:svgjs="http://svgjs.dev/svgjs" width="1000" height="1000" viewBox="0 0 1000 1000"><rect width="1000" height="1000" fill="#ffffff"></rect><g transform="matrix(0.7,0,0,0.7,149.57575757575756,282.1265587044535)"><svg viewBox="0 0 396 247" data-background-color="#282634" preserveAspectRatio="xMidYMid meet" height="623" width="1000" xmlns="http://www.w3.org/2000/svg" xmlns:xlink="http://www.w3.org/1999/xlink"><defs></defs><g id="tight-bounds" transform="matrix(1,0,0,1,0.2400000000000091,-0.09999999999999432)"><svg viewBox="0 0 395.52 247.2" height="247.2" width="395.52"><g><svg></svg></g><g><svg viewBox="0 0 395.52 247.2" height="247.2" width="395.52"><g><path d="M176.121 247.2h-84.356v-80.421h57.949v34.209h25.673c22.739 0 40.295-7.091 52.668-21.273 3.366-3.874 6.273-8.186 8.72-12.936h60.261c-5.742 18.1-15.166 33.537-28.27 46.312-23.375 22.739-54.257 34.109-92.645 34.109zM91.765 0h85.089c37.166 0 67.607 11.419 91.325 34.256 13.956 13.467 23.806 28.855 29.55 46.165l-59.974 0c-2.689-5.059-5.996-9.688-9.92-13.89-12.47-13.301-30.075-19.952-52.814-19.952h-25.307l0 33.842h-57.949z" fill="#ff4057" data-fill-palette-color="tertiary"></path></g><g transform="matrix(1,0,0,1,0,87.94958388859914)"><svg viewBox="0 0 395.52 71.30083222280173" height="71.30083222280173" width="395.52"><g><svg viewBox="0 0 395.52 71.30083222280173" height="71.30083222280173" width="395.52"><g><svg viewBox="0 0 558.780371854241 100.73196182993023" height="71.30083222280173" width="395.52"><g transform="matrix(1,0,0,1,0,13.921711077797887)"><svg viewBox="0 0 395.52000000000004 72.88853967433445" height="72.88853967433445" width="395.52000000000004"><g><svg viewBox="0 0 395.52000000000004 72.88853967433445" height="72.88853967433445" width="395.52000000000004"><g><svg viewBox="0 0 395.52000000000004 72.88853967433445" height="72.88853967433445" width="395.52000000000004"><g transform="matrix(1,0,0,1,0,0)"><svg width="395.52000000000004" viewBox="1.75 -35.349998474121094 193.44000244140625 35.64999771118164" height="72.88853967433445" data-palette-color="#ff4057"><path d="M9.15-12.6L9.15-12.6Q9.15-9.55 10.75-7.68 12.35-5.8 14.65-5.8L14.65-5.8Q17.15-5.8 18.7-7.75 20.25-9.7 20.25-12.95L20.25-12.95Q20.25-16.1 18.57-17.85 16.9-19.6 14.6-19.6 12.3-19.6 10.73-17.75 9.15-15.9 9.15-12.6ZM27.55-35.35L27.55 0 20.25 0 20.25-3.95Q17.7 0.3 12.65 0.3L12.65 0.3Q7.7 0.3 4.73-3.55 1.75-7.4 1.75-12.75L1.75-12.75Q1.75-18.75 4.85-22.2 7.95-25.65 12.7-25.65L12.7-25.65Q17.65-25.65 20.25-21.45L20.25-21.45 20.25-35.35 27.55-35.35ZM53.45-7.55L53.45-1.45Q50.85 0.25 45.5 0.25L45.5 0.25Q39.25 0.25 35.77-3.38 32.3-7 32.3-12.7L32.3-12.7Q32.3-18.75 35.67-22.18 39.05-25.6 44-25.6L44-25.6Q49.1-25.6 52.05-22.63 55-19.65 55-13.75L55-13.75Q55-12.6 54.6-9.8L54.6-9.8 39.7-9.8Q40.45-7.7 42.3-6.55 44.15-5.4 46.75-5.4L46.75-5.4Q50.6-5.4 53.45-7.55L53.45-7.55ZM44.3-20.05L44.3-20.05Q42.55-20.05 41.2-18.78 39.85-17.5 39.4-15L39.4-15 48.2-15 48.2-15.6Q47.85-20.05 44.3-20.05ZM83.75-25.35L74.3 0 66.8 0 57.45-25.35 65.1-25.35 68.4-14.55Q69.15-12.05 69.7-9.83 70.25-7.6 70.4-6.6L70.4-6.6 70.6-5.65Q71.05-8.9 72.85-14.55L72.85-14.55 76.25-25.35 83.75-25.35ZM109.69-33.7L109.69-27.5 101.49-27.5 101.49 0 93.74 0 93.74-27.5 85.49-27.5 85.49-33.7 109.69-33.7ZM137.19-25.35L137.19 0 129.89 0 129.89-4.05Q127.89 0.2 122.19 0.2L122.19 0.2Q118.29 0.2 116.12-1.98 113.94-4.15 113.94-8.4L113.94-8.4 113.94-25.35 121.24-25.35 121.24-10.05Q121.24-5.6 125.14-5.6L125.14-5.6Q129.89-5.6 129.89-11.95L129.89-11.95 129.89-25.35 137.19-25.35ZM150.49-3.95L150.49 0 143.19 0 143.19-35.35 150.49-35.35 150.49-21.45Q153.09-25.65 158.04-25.65L158.04-25.65Q162.79-25.65 165.89-22.2 168.99-18.75 168.99-12.75L168.99-12.75Q168.99-7.4 166.01-3.55 163.04 0.3 158.09 0.3L158.09 0.3Q153.04 0.3 150.49-3.95L150.49-3.95ZM150.49-12.95L150.49-12.95Q150.49-9.7 152.04-7.75 153.59-5.8 156.09-5.8L156.09-5.8Q158.39-5.8 159.99-7.68 161.59-9.55 161.59-12.6L161.59-12.6Q161.59-15.9 160.01-17.75 158.44-19.6 156.14-19.6 153.84-19.6 152.16-17.85 150.49-16.1 150.49-12.95ZM193.64-7.55L193.64-1.45Q191.04 0.25 185.69 0.25L185.69 0.25Q179.44 0.25 175.96-3.38 172.49-7 172.49-12.7L172.49-12.7Q172.49-18.75 175.86-22.18 179.24-25.6 184.19-25.6L184.19-25.6Q189.29-25.6 192.24-22.63 195.19-19.65 195.19-13.75L195.19-13.75Q195.19-12.6 194.79-9.8L194.79-9.8 179.89-9.8Q180.64-7.7 182.49-6.55 184.34-5.4 186.94-5.4L186.94-5.4Q190.79-5.4 193.64-7.55L193.64-7.55ZM184.49-20.05L184.49-20.05Q182.74-20.05 181.39-18.78 180.04-17.5 179.59-15L179.59-15 188.39-15 188.39-15.6Q188.04-20.05 184.49-20.05Z" opacity="1" transform="matrix(1,0,0,1,0,0)" fill="#000000" class="undefined-text-0" data-fill-palette-color="primary" id="text-0"></path></svg></g></svg></g></svg></g></svg></g><g transform="matrix(1,0,0,1,406.15618726343763,0)"><svg viewBox="0 0 152.62418459080337 100.73196182993023" height="100.73196182993023" width="152.62418459080337"><g><svg xmlns="http://www.w3.org/2000/svg" xmlns:xlink="http://www.w3.org/1999/xlink" version="1.1" x="0" y="0" viewBox="0 17 100 66" enable-background="new 0 0 100 100" xml:space="preserve" height="100.73196182993023" width="152.62418459080337" class="icon-icon-0" data-fill-palette-color="accent" id="icon-0"><g display="none" fill="#dcdcdc" data-fill-palette-color="accent"><path display="inline" fill-rule="evenodd" clip-rule="evenodd" d="M20.574 64.951h11.054c-0.673-1.912-1.123-3.93-1.318-6.023h-8.533c-7.975 0-14.44-6.473-14.44-14.456 0-7.983 6.466-14.456 14.44-14.456h21.862c7.977 0 14.441 6.473 14.441 14.456 0 6.489-4.268 11.978-10.146 13.806 0.824 1.5 2.18 3.689 3.862 5.385C59.568 60.76 65.1 53.266 65.1 44.472c0-11.31-9.158-20.479-20.458-20.479H20.574c-11.299 0-20.458 9.17-20.458 20.479C0.116 55.785 9.275 64.951 20.574 64.951z" fill="#000000" data-fill-palette-color="accent"></path><path display="inline" fill-rule="evenodd" clip-rule="evenodd" d="M35.015 56.52c0 11.311 9.16 20.48 20.458 20.48h24.068C90.841 77 100 67.83 100 56.52c0-11.312-9.159-20.48-20.458-20.48H68.471c0.677 1.913 1.13 3.931 1.33 6.023h8.738c7.974 0 14.439 6.474 14.439 14.457 0 7.984-6.466 14.457-14.439 14.457H56.677c-7.976 0-14.442-6.473-14.442-14.457 0-6.615 4.437-12.19 10.495-13.908-0.447-2.259-1.676-4.238-3.4-5.632C41.034 39.592 35.015 47.352 35.015 56.52z" fill="#000000" data-fill-palette-color="accent"></path></g><g fill="#dcdcdc" data-fill-palette-color="accent"><path d="M88 17H12C5.373 17 0 22.373 0 29v42c0 6.627 5.373 12 12 12h76c6.627 0 12-5.373 12-12V29C100 22.373 94.627 17 88 17zM42 62.802V35.913l23.287 13.445L42 62.802z" fill="#000000" data-fill-palette-color="accent"></path></g></svg></g></svg></g></svg></g></svg></g></svg></g></svg></g></svg><rect width="395.52" height="247.2" fill="none" stroke="none" visibility="hidden"></rect></g></svg></g></svg>